<?xml version='1.0' encoding='utf-8'?>
<svg xmlns="http://www.w3.org/2000/svg" clip-rule="evenodd" fill-rule="evenodd" stroke-linejoin="round" stroke-miterlimit="2" version="1.1" viewBox="0 0 512 512"> <g transform="matrix(1.0044 0 0 1.04 1.4618 -10.182)"> <rect x="-8" y="-.13" width="520" height="512.13" fill="#17342e"/> </g> <g transform="matrix(.51355 0 0 .51871 -5.2943 -10.363)"> <path d="m500.64 100.22 1.606-0.099c25.526-0.821 50.129 2.126 75.25 6.326 22.952 3.837 44.362 9.478 66.288 17.256 3.557 1.262 7.256 2.219 10.754 3.62l24.347 11.066c19.109 8.974 37.428 18.937 54.765 31.065 22.128 15.481 41.547 33.428 60.983 52.06 9.626 9.227 18.037 20.069 26.307 30.485 21.039 26.499 38.531 55.261 52.015 86.351 3.825 8.821 6.845 17.874 10.019 26.932 15.132 43.175 23.036 88.802 23.911 134.57 1.417 74.11-14.329 149.28-52.006 213.61-4.523 7.722-8.849 15.835-13.813 23.275-15.568 23.326-33.839 44.723-53.28 64.872-6.929 7.181-14.659 13.579-22.195 20.092-16.115 13.928-32.678 26.315-50.67 37.745-1.806 1.147-3.856 1.875-5.71 2.942l-27.333 14.467c-18.979 9.012-38.683 17.134-58.812 23.224-3.485 1.054-7.071 1.682-10.583 2.626-29.213 7.853-59.347 12.353-89.612 12.883-85.115 1.339-168.92-21.579-238.39-71.562-15.711-11.304-30.145-23.841-44.368-36.934-16.046-14.771-30.457-32.649-43.154-50.331-11.573-16.115-22.802-33.222-31.977-50.851-30.546-58.687-45.538-123.93-48.213-189.79-0.719-17.681 0.543-35.43 2.279-53.016 3.527-35.714 11.036-71.128 23.609-104.81 5.961-15.969 13.568-31.617 21.587-46.643 9.103-17.058 19.173-34.355 30.594-49.969 8.665-11.847 18.291-22.907 28.258-33.668 16.051-17.33 34.109-33.475 52.85-47.834 6.901-5.287 13.863-10.801 21.13-15.572 60.583-39.772 131.28-61.543 203.56-64.391z" fill="#f6c97a" fill-rule="nonzero"/> </g> <g transform="matrix(.47712 0 0 .48066 12.134 8.9597)"> <path d="m500.64 100.22 1.606-0.099c25.526-0.821 50.129 2.126 75.25 6.326 22.952 3.837 44.362 9.478 66.288 17.256 3.557 1.262 7.256 2.219 10.754 3.62l24.347 11.066c19.109 8.974 37.428 18.937 54.765 31.065 22.128 15.481 41.547 33.428 60.983 52.06 9.626 9.227 18.037 20.069 26.307 30.485 21.039 26.499 38.531 55.261 52.015 86.351 3.825 8.821 6.845 17.874 10.019 26.932 15.132 43.175 23.036 88.802 23.911 134.57 1.417 74.11-14.329 149.28-52.006 213.61-4.523 7.722-8.849 15.835-13.813 23.275-15.568 23.326-33.839 44.723-53.28 64.872-6.929 7.181-14.659 13.579-22.195 20.092-16.115 13.928-32.678 26.315-50.67 37.745-1.806 1.147-3.856 1.875-5.71 2.942l-27.333 14.467c-18.979 9.012-38.683 17.134-58.812 23.224-3.485 1.054-7.071 1.682-10.583 2.626-29.213 7.853-59.347 12.353-89.612 12.883-85.115 1.339-168.92-21.579-238.39-71.562-15.711-11.304-30.145-23.841-44.368-36.934-16.046-14.771-30.457-32.649-43.154-50.331-11.573-16.115-22.802-33.222-31.977-50.851-30.546-58.687-45.538-123.93-48.213-189.79-0.719-17.681 0.543-35.43 2.279-53.016 3.527-35.714 11.036-71.128 23.609-104.81 5.961-15.969 13.568-31.617 21.587-46.643 9.103-17.058 19.173-34.355 30.594-49.969 8.665-11.847 18.291-22.907 28.258-33.668 16.051-17.33 34.109-33.475 52.85-47.834 6.901-5.287 13.863-10.801 21.13-15.572 60.583-39.772 131.28-61.543 203.56-64.391z" fill="#fff" fill-rule="nonzero"/> </g> <g transform="translate(.9618 -.38924)"> <path d="m66.789 273.71c17.082-11.223 41.011-23.562 79.881-38.34 37.38-10.764 75.494 29.657 119.78 75.927 24.652 18.295 46.701-24.771 86.693-55.3 20.078-21.683 53.866 9.879 87.292 40.036-3.893 19.82-10.759 39.01-21.016 56.522-2.168 3.701-4.241 7.59-6.621 11.156-7.461 11.18-16.219 21.435-25.537 31.093-3.321 3.441-7.026 6.508-10.638 9.63-7.724 6.675-15.662 12.612-24.286 18.091-0.865 0.55-1.848 0.899-2.737 1.41l-13.1 6.934c-9.097 4.319-18.541 8.212-28.189 11.131-1.67 0.505-3.389 0.806-5.072 1.259-14.002 3.764-28.445 5.921-42.951 6.175-40.796 0.641-80.964-10.343-114.26-34.3-7.531-5.418-14.449-11.427-21.266-17.702-7.691-7.08-14.598-15.649-20.684-24.124-5.547-7.724-10.929-15.923-15.326-24.373-12.202-23.442-19.225-49.066-21.969-75.225z" fill="#17342e"/> </g> <g transform="translate(1.0967 -.52293)"> <path d="m425.23 164.55c0.992 2.066 1.946 4.153 2.861 6.263 1.833 4.228 3.281 8.567 4.802 12.909 7.253 20.694 11.041 42.563 11.46 64.5 0.68 35.521-6.867 71.552-24.926 102.38-2.168 3.701-4.241 7.59-6.621 11.156l-0.094 0.141-9.072-9.122c-10.222-11.289-17.014-24.425-21.553-38.895-1.598-5.096-3.047-10.284-3.818-15.583-1.322-9.08-1.429-18.198-0.918-27.35 0.236-4.238 0.829-8.394 1.616-12.563 0.428-2.264 1.278-4.83 1.337-7.11l4e-3 -0.419c1.807-7.752 4.847-15.515 7.885-22.858l4.88-11.557c8.797-18.434 20.112-35.461 32.157-51.895z" fill="#4a0e00" fill-rule="nonzero"/> </g> <g transform="matrix(.99999 .0034412 -.0034412 .99999 .79683 -.13592)"> <path d="m81.026 175.64c13.251 15.816 25.812 32.271 35.891 50.33l5.607 11.222c3.499 7.135 7.027 14.689 9.325 22.31l0.031 0.417c0.204 2.272 1.215 4.779 1.787 7.012 1.051 4.109 1.907 8.219 2.413 12.434 1.093 9.1 1.567 18.207 0.827 27.353-0.432 5.337-1.548 10.607-2.818 15.794-3.608 14.73-9.549 28.272-19.031 40.189l-8.835 10.096c-0.35-0.48-0.697-0.96-1.042-1.44-5.547-7.723-10.929-15.923-15.326-24.372-14.641-28.129-21.827-59.399-23.109-90.966-0.345-8.474 0.26-16.981 1.092-25.41 1.691-17.118 5.29-34.092 11.316-50.236 0.592-1.585 1.217-3.164 1.872-4.733z" fill="#b05901" fill-rule="nonzero"/> </g> <g transform="scale(.5)"> <g transform="matrix(2 0 0 2 .14364 24.52)"> <circle cx="161.67" cy="160.67" r="20.671" fill="#d56b00"/> </g> <g transform="matrix(.86475 0 0 .86475 114.35 230.39)"> <circle cx="161.67" cy="160.67" r="20.671" fill="#f48b00"/> </g> <g transform="matrix(.40426 0 0 .40426 243.78 179.48)"> <circle cx="161.67" cy="160.67" r="20.671" fill="#f9b735"/> </g> <g transform="matrix(.97415 0 0 .97415 196.08 89.914)"> <circle cx="161.67" cy="160.67" r="20.671" fill="#9b2b00"/> </g> <g transform="matrix(.51803 0 0 .51803 375.35 86.963)"> <circle cx="161.67" cy="160.67" r="20.671" fill="#d56b00"/> </g> <g transform="matrix(.66664 0 0 .66664 517.08 146.67)"> <circle cx="161.67" cy="160.67" r="20.671"/> </g> <g transform="matrix(1.9453 0 0 1.9453 389.4 -58.775)"> <circle cx="161.67" cy="160.67" r="20.671" fill="#f9b735"/> </g> <g transform="matrix(1.7214 0 0 1.7214 437.05 103.65)"> <circle cx="161.67" cy="160.67" r="20.671" fill="#9b2b00"/> </g> </g> <g transform="matrix(1.2789 0 0 .99074 -61.476 -34.773)"> <path d="m249.44 126.4s-71.007 78.054-71.007 192.37c0 50.586 31.817 91.656 71.007 91.656 39.189 0 71.006-41.07 71.006-91.656 0-114.32-71.006-192.37-71.006-192.37z" fill="#f48b00"/> </g> <g transform="translate(1.0282 -.063548)"> <path d="m93.393 356.8 10.545-10.559c1.539-1.541 4.04-1.543 5.581-4e-3s1.542 4.04 3e-3 5.581l-11.819 11.834c-1.481-2.255-2.924-4.541-4.31-6.852zm-15.6-33.654 30.828-30.867c1.539-1.54 4.039-1.542 5.58-3e-3s1.543 4.039 4e-3 5.58l-33.368 33.41c-1.075-2.687-2.09-5.395-3.044-8.12zm-8.924-34.715 44.38-44.436c1.539-1.541 4.039-1.542 5.58-4e-3 1.541 1.539 1.543 4.04 4e-3 5.581l-48.157 48.217c-0.669-3.104-1.27-6.224-1.807-9.358zm-2.964-46.22 31.167-31.205c1.539-1.541 4.039-1.543 5.58-4e-3s1.542 4.039 3e-3 5.58l-37.099 37.146c-0.034-3.839 0.105-7.682 0.349-11.517z"/> </g> <g transform="matrix(.99995 .010347 -.010347 .99995 .9474 -3.4468)"> <path d="m420.18 354.68-12.854-12.871c-1.539-1.541-1.537-4.041 3e-3 -5.58 1.541-1.539 4.042-1.538 5.581 3e-3l11.316 11.331c-0.842 1.552-1.709 3.088-2.601 4.611-0.485 0.828-0.965 1.665-1.445 2.506zm15.656-33.598-33.193-33.234c-1.539-1.541-1.537-4.042 4e-3 -5.581s4.041-1.537 5.58 4e-3l30.297 30.335c-0.828 2.846-1.724 5.672-2.688 8.476zm8.474-35.166-46.295-46.353c-1.539-1.541-1.537-4.041 4e-3 -5.58s4.041-1.537 5.58 3e-3l41.93 41.983c-0.328 3.325-0.734 6.642-1.219 9.947zm1.724-47.461-31.841-31.881c-1.539-1.541-1.538-4.042 3e-3 -5.58 1.541-1.539 4.041-1.538 5.58 3e-3l24.987 25.018c0.546 4.131 0.97 8.28 1.271 12.44z"/> </g> <path d="m124.48 395.74c0.219-2.054 0.653-4.075 1.578-5.953 2.198-4.461 6.444-6.656 10.965-8.117 2.984-0.488 6.383-0.718 9.104 0.831l0.234 0.138c0.963-1.946 1.596-4.024 2.587-5.955 0.917-1.789 2.164-3.413 3.341-5.035 2.771-3.83 11.05-11.386 11.05-11.386 2.104-0.07 12.203 9.907 14.073 13.101 1.034 1.765 1.978 3.634 2.797 5.509 0.149 0.341 0.644 1.845 0.859 2.025 0.325 0.272 5.775 1.338 6.56 1.559 6.541 1.845 13.143 5.603 16.804 11.457 0.921 1.473 1.81 3.199 2.043 4.933 0.654 3.503 1.335 6.747 0.634 10.303l-0.085 0.439c-1.636 8.3-7.452 14.714-13.463 20.273-1.595 1.475-3.089 3.005-4.785 4.381-0.77 0.625-1.608 1.174-2.442 1.73-13.787-5.366-26.959-12.421-39.202-21.23-7.53-5.418-14.448-11.427-21.265-17.703-0.466-0.428-0.928-0.862-1.387-1.3z" fill="#616302" fill-rule="nonzero"/> <path d="m259.79 449.07 0.38-22.562 1.168-0.973c1.949-1.155 4.106-2.029 6.203-2.873 0.67-0.27 1.745-0.323 2.25-0.753l0.873-5.193c2.132-8.303 4.556-12.302 10.995-18.077 7.2-6.459 28.28-4.815 28.686-3.328-0.36 0.824-1.673 1.161-2.263 1.83-0.756 0.859-1.425 1.824-2.068 2.77-3.981 5.861-2.505 13.048-0.144 19.194 2.602 6.775 7.368 12.32 13.084 16.698 0.781 0.599 1.652 1.122 2.502 1.66-3.971 1.53-7.988 2.928-12.041 4.154-1.67 0.505-3.389 0.806-5.073 1.259-14.001 3.764-28.445 5.92-42.951 6.174-0.534 9e-3 -1.068 0.015-1.601 0.02z" fill="#f9b735" fill-rule="nonzero"/> <path d="m321.48 437.48c-0.858-0.544-1.738-1.071-2.527-1.676-5.716-4.378-10.482-9.923-13.084-16.698-2.361-6.146-3.837-13.333 0.144-19.194 0.643-0.946 1.312-1.911 2.068-2.77 0.59-0.669 4.805-3.565 5.066-4.407 0.421-1.361 0.292-3.287 0.404-4.723 0.462-5.917 1.321-11.096 4.624-16.141 4.044-6.176 10.992-10.649 17.311-14.239 1.292-0.734 2.911-1.836 4.396-2.07 0.793-0.125 12.334 7.22 13.48 8.1 1.146 0.881 2.405 1.571 3.451 2.584 4.635 4.485 7.336 10.031 9.123 16.163 0.314 1.08 0.788 2.461 1.507 3.352 1.92 0.981 4.514 1.158 6.645 1.516 5.028 0.844 11.853 2.23 15.988 5.646-0.398 0.418-0.799 0.835-1.2 1.251-3.336 3.457-7.057 6.537-10.685 9.673-7.758 6.705-15.731 12.668-24.393 18.17-0.869 0.552-1.856 0.903-2.748 1.416l-13.158 6.965c-5.361 2.545-10.841 4.943-16.412 7.082z" fill="#f48b00" fill-rule="nonzero"/> <g transform="translate(.24786)"> <path d="m337.68 430.52c-0.515-5.891 0.354-26.462 0.354-26.462l0.111-7.709c0.029-1.694 1.227-40.929 1.227-40.929 2.686 1.457 7.573 3.731 10.084 5.47 1.191 0.825 2.226 1.841 3.372 2.721 1.146 0.882 2.405 1.572 3.451 2.585 4.635 4.485 7.657 10.217 9.444 16.349 0.315 1.08 0.467 2.275 1.185 3.166 1.921 0.981 4.515 1.158 6.646 1.516 5.144 0.863 12.167 2.294 16.268 5.884-0.395 0.414-0.792 0.828-1.19 1.241-3.325 3.445-7.034 6.515-10.65 9.64-7.732 6.683-15.679 12.626-24.312 18.111-0.866 0.55-1.85 0.899-2.739 1.411l-13.115 6.942-0.136 0.064z" fill="#d56b00" fill-rule="nonzero"/> </g> <path d="m161.74 424.25v-41.523c0-1.481 1.203-2.683 2.684-2.683s2.683 1.202 2.683 2.683v23.764l5.917-9.537c0.781-1.258 2.437-1.646 3.695-0.865 1.259 0.781 1.647 2.436 0.866 3.695l-10.478 16.888v10.547c-1.804-0.957-3.593-1.947-5.367-2.969z"/> <path d="m336.26 426.36-8.312-25.478c-0.459-1.408 0.311-2.924 1.719-3.384 1.408-0.459 2.925 0.311 3.384 1.719l3.209 9.837v-26.159c0-1.481 1.203-2.684 2.684-2.684s2.684 1.203 2.684 2.684v26.819l5.316-9.208c0.741-1.283 2.384-1.723 3.666-0.982 1.283 0.74 1.723 2.383 0.983 3.666l-9.965 17.259v7.713l-4.33 2.291c-0.345 0.164-0.691 0.328-1.038 0.491v-4.584z"/> <path d="m213.9 171.84 39.507 39.556v-52.572c0-5.101 7.892-5.101 7.892 0v50.484l37.422-37.468c3.604-3.61 9.188 1.967 5.583 5.576l-43.005 43.06v38.019l53.599-53.666c3.605-3.609 9.188 1.967 5.584 5.577l-59.183 59.257v32.483l48.971-49.033c3.605-3.609 9.188 1.968 5.583 5.577l-54.554 54.623v38.106l3.945-3.951v11.168l-3.945 3.95v86.413c-0.631 0.018-1.264 0.033-1.896 0.044-2.002 0.032-4.003 0.036-5.996 0.01v-84.379l-51.957-52.022c-3.605-3.61 1.979-9.187 5.584-5.577l46.373 46.431v-38.105l-56.64-56.711c-3.604-3.609 1.979-9.186 5.584-5.577l51.056 51.12v-32.483l-61.268-61.344c-3.605-3.61 1.979-9.186 5.584-5.577l55.684 55.754v-38.02l-45.09-45.147c-3.605-3.609 1.978-9.186 5.583-5.576zm51.344 186.8v-11.168l40.343-40.393c3.605-3.61 9.189 1.967 5.584 5.577l-45.927 45.984z"/> </svg>