<?xml version="1.0" encoding="UTF-8"?>
<svg viewBox="0 0 1024 768" xmlns="http://www.w3.org/2000/svg">
 <defs>
  <radialGradient id="a" cx="779.24" cy="-78.333" r="334.46" gradientTransform="matrix(1.4551 1.4668 1.5542 -1.5418 -496.62 -1294.9)" gradientUnits="userSpaceOnUse">
   <stop offset="0"/>
   <stop stop-opacity="0" offset="1"/>
  </radialGradient>
 </defs>
 <path d="m0 0h1024v768h-1024z"/>
 <path d="m375.52 484.66s-80.441 90.498-94.246 91.499c-24.747 1.7939-51.881 1.4928-47.369 39.839s38.346 9.0227 38.346 9.0227-2.2557-11.278 4.5114-13.534 18.045 36.091 18.045 36.091l-6.767 4.5114s-6.767 31.579 33.835 20.301 45.113-36.091 40.602-47.369l-4.5114-11.278s-13.534 24.812-18.045 15.79 7.9125-30.738 7.9125-30.738-20.874 1.1101-20.874-7.9125-1.3191-12.738 7.7036-21.761 21.81-14.026 33.089-25.304 15.027-27.068 24.049-27.068-25.05 42.38-44.241 49.72c-13.325 5.0962-19.872 25.345-0.90778 24.717 20.311-0.67247 88.007-69.926 88.007-78.949s-7.3941-20.542-24.812-27.068c-12.041-4.5114-36.583 1.747-34.327-0.50869z" fill="#fff" fill-rule="evenodd"/>
 <path d="m275.76 90.851c-12.258 0.25017-25.171 6.7557-35.678 18.764-21.014 24.016 2.1142 63.956 2.1142 63.956s-12.098-15.102-25.107-11.1-20.07 30.048-1.0571 52.063 51.25 9.1548 60.256 12.157 96.991 91.969 96.991 91.969l6.8713-84.041-62.899-52.063s12.823-39.587-8.9855-72.941c-8.5058-13.009-20.248-19.014-32.506-18.764zm19.028 47.57c8.0804 2.8584 13.478 52.063 13.478 52.063l62.899 62.106 1.6135 6.7983-68.831-62.753c0 2e-5 -16.746 14.881-24.752-1.1301s16.121-8.9855 16.121-8.9855-1.1136-10.871-2.1142-20.878-9.0061-22.954 0-26.957c0.56288-0.25017 1.047-0.45484 1.5857-0.26427z" fill="#fff" fill-rule="evenodd"/>
 <path d="m664.45 208.61 37.025-41.028s-6.0041-31.021 11.007-62.042 70.048-39.026 76.052-2.0014-7.0047 53.036-5.0034 63.043 8.0054 15.01 8.0054 15.01-11.007-25.017 3.002-31.021 36.024 47.032-1.0007 63.043-48.033-5.0034-48.033-5.0034l-70.048 76.052s-1.0007-20.014-3.002-33.022-0.61237-27.312-0.61237-27.312l43.253-42.382s9.3944 19.66 19.401 12.655-3.002-14.01-5.0034-32.022-2.0014-39.026-2.0014-39.026-12.008 21.014-11.007 37.025-1.0006 13.009-1.0006 13.009l-47.032 48.033-4.0028-13.009z" fill="#fff" fill-rule="evenodd"/>
 <path d="m639.41 470.89s-10.91 3.9051-16.914 16.914 0 49.156 0 49.156l71.091 62.899s0.7108-5.0202 1.0571-7.9284l-50.477-45.192 0.26428-3.4356 50.742 44.928c1.2999-9.8761 3.021-21.681 5.2856-20.35 2.393 1.4066-0.79284 27.485-0.79284 27.485s25.07-5.4801 23.785-1.5857c-1.9896 6.0319-21.407 6.8712-21.407 6.8713s1.8638 25.371-0.52856 25.371c-2.7472 0-4.4928-24.314-4.4928-24.314s-16.632 11.207-11.628 41.228 24.968 47.968 59.992 40.963 14.197-27.085 8.1927-48.099 2.907-36.999 2.9071-36.999 0.14876 24.219 12.157 27.221 49.841-31.103 19.821-67.127-54.1-6.022-62.106-5.0213-86.948-82.984-86.948-82.984z" fill="#fff" fill-rule="evenodd"/>
 <path d="m520.16 130.47c-67.487 0.19618-89 37.031-89 37.031s-10.526-2.2194 28.5 44.812c1.8134 2.1854 3.5468 4.2058 5.2188 6.1562 4.0881 0.30371 13.897 1.0312 19.688 1.0312 7.1052 0 8.6562-1.3438 8.6562-1.3438s-3.3438-7.4816-3.3438-12.438 6.2188-12.125 6.2188-12.125-6.9014 9.0797-5.125 15.688 6.913 11.714-0.53125 10.656c-4.1527-0.58997-17.94 0.04583-24.938-0.71875 33.74 39.19 38.781 31.25 38.781 31.25l11.969 15.062s-12.713-7.1883-25.812-16.656c0.58995 1.9828 0.90835 3.9967 0.90625 4.9375-0.01277 5.716-0.38348 9.4206-1.8438 10.719 2.0852-8.153 1.5581-10.378-1.75-17.656-3.5624-2.6544-7.0954-5.4389-10.344-8.2812-16.011-14.01-55.219-66.094-55.219-66.094l-15.875 20.094 151.97 168.09c3.002 3.0021 5.0713-9.9396 38.094-6.9375s41.969 13 41.969 13 12.316-11.016 18.406-20c-3.5881-3.3451-9.3899-8.1572-14.438-17.531-7.0047-13.009-5.1875-37.938-5.1875-37.938l3.625-2.3438c2e-5 1e-5 -1.7826 16.429 0.21875 29.438 4.7592 16.461 10.935 21.001 17.125 24.344 8.1305-18.513 12.976-50.002 2.4688-93.031-21.014-86.058-67.109-118.19-137.16-119.19-1.0945-0.01564-2.1788-0.03436-3.25-0.03125z" fill="#fff" fill-rule="evenodd"/>
 <path d="m396.27 220.61c0 2.0014-7.8898 7.941-11.893 40.963-8.3953 69.261 10.987 113.16 8.9855 81.134s5.8142-59.992 5.8142-59.992-0.20246 26.306-1.2032 39.315 3.3348 19.619 3.3348 19.619 15.026-5.0213 24.032-5.0213 19.028 3.9642 19.028 3.9642-36.034 10.061-47.042 15.064-17.178 7.0737-17.178 34.092 10.043 35.942 10.043 35.942l-1.85 8.9855-10.043-15.857s-2.9635-0.09768-3.9642 16.914 19.821 36.999 19.821 36.999 15.228-12.955 46.249 15.064 4.8646 29.412 4.6846 39.317c0.59453 5.9568 25.299 55.729 88.342 58.731s79.02-53.12 79.02-53.12-8.0618-15.926-1.0571-49.949 41.151-8.9622 49.156-31.978 10.951-99.051-1.0571-84.041-3.0558 14.037-15.064 52.063-54.038 52.974-89.062 26.957-20.085-68.184-20.085-68.184l-139.01-156.98zm16.121 144.03s15.964 23.085 45.985 34.092 45.076 5.0446 57.084-17.971c0 0-0.07434 25.992-6.0784 36.999s-30.128 40.963-30.128 40.963-22.004 2.1376-56.027-20.878-10.835-73.205-10.835-73.205zm114.96 85.098c8.0054 0 32.999 49.135 22.992 58.142s-24.049-1.9986-24.049-14.007-1.85-24.049-1.85-24.049-0.01793 25.861-5.0213 29.864-21.125-8.8879-16.121-25.899 22.048-22.048 24.049-24.049z" fill="#fff" fill-rule="evenodd"/>
 <path d="m450.41 534.38-4.9159 22.505s5.2667 7.7325 9.4756 9.4371 11.123-23.141 11.123-23.141-4.9738-5.864-8.5814-7.3252-5.476-1.1682-7.1009-1.4764z" fill="#fff" fill-rule="evenodd"/>
 <path d="m608.1 541.16 4.9159 22.505s-5.2667 7.7325-9.4756 9.4371-11.123-23.141-11.123-23.141 4.9738-5.864 8.5814-7.3252 5.476-1.1682 7.1009-1.4764z" fill="#fff" fill-rule="evenodd"/>
 <path d="m527.15 581.37-1.6011 25.711-17.988-1.2244-0.37675-28.159 19.966 3.673z" fill="#fff" fill-rule="evenodd"/>
 <path d="m528.85 581.37 1.6011 25.711 17.988-1.2244 0.37676-28.159-19.966 3.673z" fill="#fff" fill-rule="evenodd"/>
 <path d="m486.15 570 0.71428 23.025s6.9917 6.2166 11.489 6.8446 5.1505-25.153 5.1505-25.153-6.2523-4.4758-10.107-5.0141-5.5957 0.20094-7.2467 0.29777z" fill="#fff" fill-rule="evenodd"/>
 <path d="m571.16 570-0.71427 23.025s-6.9917 6.2166-11.489 6.8446-5.1505-25.153-5.1505-25.153 6.2523-4.4758 10.107-5.0141 5.5957 0.20094 7.2467 0.29777z" fill="#fff" fill-rule="evenodd"/>
 <path d="m481.23 568.26s-1.0805 7.0234-1.0805 11.886 1.8009 11.886 0.72036 12.426-11.526-6.4833-13.327-14.407-3.4216-18.909-0.72028-21.25 14.587 11.706 14.407 11.346z" fill="#fff" fill-rule="evenodd"/>
 <path d="m576.51 572.58s1.0805 7.0234 1.0805 11.886-1.8009 11.886-0.72036 12.426 11.526-6.4833 13.327-14.407 3.4216-18.909 0.72028-21.25-14.587 11.706-14.407 11.346z" fill="#fff" fill-rule="evenodd"/>
 <path d="m305.28 0c-75.771 57.054-269.91 148.47-269.91 246.15 0 171.74 282.75 470.93 467.37 470.93s456.09-313.33 456.09-485.07c0-97.678-157.37-174.95-233.14-232.01h-420.41z" fill="url(#a)"/>
</svg>
