<?xml version='1.0' encoding='utf-8'?>
<svg xmlns="http://www.w3.org/2000/svg" viewBox="0 0 1080 1080"> <defs> <style>.cls-1 { opacity: .12; } .cls-1, .cls-2, .cls-3 { fill: #fff; } .cls-4 { isolation: isolate; } .cls-2 { opacity: .3; } .cls-5 { fill: #0b8647; } .cls-6 { mix-blend-mode: darken; } .cls-6, .cls-7 { opacity: .15; } .cls-8 { fill: #faf7d4; } .cls-9 { fill: #b21810; } .cls-10 { fill: #cfd8bf; } .cls-7, .cls-11, .cls-12 { fill: #212121; } .cls-13 { fill: #e2deb5; } .cls-3, .cls-12 { opacity: .35; } .cls-14 { fill: #d31f11; } .cls-15 { fill: #204130; } .cls-16 { fill: #6f212f; } .cls-11 { opacity: .1; }</style> </defs> <g class="cls-4"> <rect class="cls-10" width="1080" height="1080"/> <ellipse class="cls-6" cx="540" cy="831.91" rx="278.64" ry="19.91"/> <g data-name="Object"> <path class="cls-5" d="M840.21,680.1c-7.05,18.43-16.05,34.05-31.78,46.69-11.07,8.9-25.48,16.33-44.9,22.23-9.57,2.91-20.36,5.45-32.57,7.61-30.12,5.33-58.61,9.09-85.52,11.5-23.16,2.08-45.16,3.16-66.04,3.39-49.76,.53-93.15-3.8-130.75-11.08-41.47-8.02-75.86-19.63-103.97-32.27h-.01s-.01-.01-.01-.01c-73.51-33.06-103.95-73.12-104.85-74.33,.71,.59,12.41,10.2,34.94,22.78,4.42,2.47,9.26,5.06,14.52,7.71,10,5.05,21.5,10.34,34.5,15.57,14.31,5.75,30.44,11.43,48.37,16.61,1.03,.3,2.06,.59,3.1,.88h.01c5.82,1.64,11.83,3.23,18.03,4.75,20.53,5.05,43.09,9.35,67.69,12.4,15.14,1.88,29.71,3.15,43.68,3.91,4.28,.23,8.5,.42,12.67,.55h.01c2.63,.1,5.23,.17,7.81,.22,30.47,.64,57.72-1.1,81.34-4.02h.01c20.49-2.52,38.24-5.92,52.99-9.42,9.62-2.28,17.96-4.6,24.95-6.74,9.98-3.05,17.2-5.75,21.44-7.44,2.95-1.18,4.47-1.88,4.47-1.88l50.89-11.6,78.98-18.01Z"/> <path class="cls-8" d="M710.35,709.71s-8.99,4.14-25.91,9.32c-6.99,2.14-15.33,4.46-24.95,6.74-31.76,7.53-77.45,14.63-134.34,13.44-6.68-.14-13.51-.39-20.49-.77-13.97-.76-28.54-2.03-43.68-3.91-24.6-3.05-47.16-7.35-67.69-12.4-7.31-1.79-14.35-3.68-21.14-5.63-34.23-9.89-61.87-21.58-82.87-32.18-5.26-2.65-10.1-5.24-14.52-7.71-23.26-12.99-34.97-22.81-34.97-22.81l30.39-58.98,260.93,12.77,144.51,26.55,34.73,75.57Z"/> <path class="cls-14" d="m270.17 594.82 218.56-366.64 190.98 414.64s-52.85 35.9-219.57 22.47c-139.4-11.23-189.96-70.47-189.96-70.47z"/> <polygon class="cls-9" points="488.73 228.18 543.87 228.18 803.28 623.85 679.7 642.82"/> <polygon class="cls-13" points="803.28 623.85 840.21 680.09 710.34 709.71 679.7 642.82"/> <path class="cls-15" d="M645.44,768.13c-23.16,2.08-45.16,3.16-66.04,3.39-.52-5.77-8.54-11.91-35.07-20.9-12.07-4.08-20.81-7.95-27-11.63,2.63,.1,5.23,.17,7.81,.22,30.47,.64,57.72-1.1,81.34-4.02h.01c7.21,1.56,15.11,3.55,23.47,7.15,15.27,6.56,17.31,15.7,15.48,25.79Z"/> <path class="cls-15" d="M448.65,760.44c-41.47-8.02-75.86-19.63-103.97-32.27h-.01s-.01-.01-.01-.01c-14.16-11.08-19.99-20.54-20.89-28.27,14.31,5.75,30.44,11.43,48.37,16.61,1.03,.3,2.06,.59,3.1,.88h.01c14.05,10.45,94.07,35.97,73.4,43.06Z"/> <path class="cls-15" d="M808.44,726.79c-11.07,8.9-25.48,16.33-44.9,22.23-29.09-3.14-67.63-6.48-57.66-37.43,2.95-1.18,4.47-1.88,4.47-1.88l50.89-11.6,9.88-1.72c-2.61,2.84-4.08,6.25-3.85,10.33,1.36,25.12,20.59,17.79,39.81,19.89,.46,.05,.91,.11,1.36,.18Z"/> <path class="cls-16" d="M470.08,335.02c.09-.61-.93-.81-1.48-.29-5.49,5.16-26.96,22.88-13.52,28.16,13.78,5.42,14.22-22.23,15-27.87Z"/> <path class="cls-16" d="M518.19,405.51c-.2-.59-1.19-.31-1.45,.41-2.59,7.08-13.81,32.55,.56,31.23,14.74-1.35,2.72-26.24,.89-31.64Z"/> <path class="cls-16" d="M432.53,444.9c-.2-.59-1.19-.31-1.45,.41-2.59,7.08-13.81,32.55,.56,31.23s2.72-26.24,.89-31.64Z"/> <path class="cls-16" d="M495.72,490.35c-.03-.62-1.06-.63-1.51,0-4.44,6.09-22.22,27.5-8.04,30.19,14.54,2.76,9.83-24.49,9.55-30.18Z"/> <path class="cls-16" d="M466.93,565.58c-.3-.54-1.23-.1-1.36,.65-1.33,7.42-7.97,34.45,5.96,30.67,14.29-3.88-1.86-26.32-4.6-31.32Z"/> <path class="cls-16" d="M566.51,534.02c-.1-.61-1.13-.49-1.5,.17-3.67,6.58-18.75,29.98-4.35,30.94s6.81-25.49,5.85-31.11Z"/> <path class="cls-16" d="M390.91,517.79c-.18-.59-1.18-.36-1.47,.35-2.87,6.97-15.09,31.97-.68,31.23,14.78-.76,3.76-26.12,2.15-31.58Z"/> <g data-name="Shadow"> <path class="cls-12" d="M840.21,680.1c-7.05,18.43-16.05,34.05-31.78,46.69-11.07,8.9-25.48,16.33-44.9,22.23-9.57,2.91-20.36,5.45-32.57,7.61-30.12,5.33-58.61,9.09-85.52,11.5-23.16,2.08-45.16,3.16-66.04,3.39-49.76,.53-93.15-3.8-130.75-11.08-12.92-2.5-25.15-5.35-36.73-8.46,14.49,2.75,131.25,22.34,246.84-6.52,114.71-28.64,100.67-45.24,102.47-47.35l78.98-18.01Z"/> <path class="cls-7" d="M806.35,653.83c-9.87-26.35-67.81-19.89-71.79-19.42l68.72-10.55,36.94,56.24-36.93,8.42c.29-.17,13.15-7.71,3.06-34.69Z"/> <path class="cls-11" d="m568.56 265.82 234.72 358.04-85.73 13.16c69.84-22.8-148.99-371.2-148.99-371.2z"/> </g> <path class="cls-1" d="M356.06,541.48c12.04-26.31,24.09-52.62,36.13-78.93,3.1-6.77-4.29-13.72-10.76-10.01-.05,.03-.1,.06-.14,.08-4.77,2.79-8.32,7.21-11.76,11.53-24.92,31.3-50.96,65.4-53.16,105.35-.42,7.62,.25,15.81,4.91,21.85,2.87,3.72,9.07,7.29,13.96,6.04,6.78-1.73,5.08-5.88,5.89-12.13,2.01-15.42,8.51-29.77,14.93-43.78Z"/> <path class="cls-1" d="M401.79,405.37c1.58-2.32,3.69-4.67,6.48-4.92,2.4-.21,4.75,1.3,5.96,3.39s1.42,4.63,1.07,7.02c-.64,4.35-2.99,8.24-5.28,11.99-3.11,5.07-6.11,10.23-9.32,15.23-1.01,1.57-2.52,4.64-4.77,3.71-2-.83-2.04-4.72-2.16-6.42-.75-10.52,2.07-21.29,8.02-30.01Z"/> <path class="cls-1" d="M597.17,397.34c-12.56-24.24-25.11-48.48-37.67-72.72-3.23-6.24-7.87-4.22-6.7,2.99,0,.05,.02,.11,.03,.16,.89,5.35,2.81,10.64,4.69,15.79,13.61,37.27,28.58,76.98,49.66,100.98,4.02,4.58,8.48,8.61,12.29,8.25,2.35-.22,5.03-3.16,4.98-7.75-.08-6.36-2.51-7.32-5.74-11.44-7.99-10.18-14.85-23.36-21.54-36.26Z"/> <path class="cls-1" d="M530.13,285.14c-1.04-2.55-2.03-5.54-1.82-7.9,.19-2.03,1.29-3.05,2.56-2.86s2.65,1.45,3.89,3.06c2.25,2.93,4.03,6.96,5.75,10.88,2.32,5.3,4.71,10.56,6.98,15.91,.71,1.68,2.16,4.59,1.39,5.86-.69,1.13-2.78-1-3.7-1.86-5.72-5.26-11.12-13.5-15.04-23.09Z"/> <path class="cls-3" d="m460.98 734.53c-24.6-3.05-47.16-7.35-67.69-12.4-7.31-1.79-14.35-3.68-21.14-5.63-34.23-9.89-61.87-21.58-82.87-32.18-5.26-2.65-10.1-5.24-14.52-7.71-23.26-12.99-34.97-22.81-34.97-22.81l30.39-58.98s3.44 91.21 190.8 139.71z"/> <path class="cls-2" d="M415.76,752.99c-27.17-7.09-50.77-15.69-71.08-24.82h-.01s-.01-.01-.01-.01c-32.55-14.64-56.65-30.65-73.48-44.06,36.34,14.43,100.59,40.98,125.19,57.78,4.78,3.27,11.58,7.04,19.39,11.11Z"/> </g> </g> </svg>